<svg width="70" height="48" viewBox="0 0 70 48" fill="none" xmlns="http://www.w3.org/2000/svg">
<path d="M54.8675 17.6607C54.099 17.6607 53.3433 17.7189 52.6052 17.83L48.0534 4.17578H55.4165V0.0742188H42.3631L46.024 11.0571H21.0093V7.0928H26.25V2.99124H14.583V7.0928H16.9072V17.7654C16.3251 17.6971 15.7328 17.6613 15.1325 17.6613C6.78841 17.6607 0 24.4491 0 32.7933C0 41.1374 6.78841 47.9258 15.1325 47.9258C22.7957 47.9258 29.1462 42.1991 30.1315 34.8008H39.8685C40.8533 42.1991 47.2038 47.9258 54.8675 47.9258C63.2116 47.9258 70 41.1374 70 32.7933C70 24.4491 63.2116 17.6607 54.8675 17.6607ZM54.8675 43.8242C49.4708 43.8242 44.9703 39.9277 44.0229 34.8008H55.4165L57.3621 32.1017L53.9302 21.805C54.2394 21.7789 54.5513 21.7623 54.8675 21.7623C60.9499 21.7623 65.8984 26.7109 65.8984 32.7933C65.8984 38.8756 60.9499 43.8242 54.8675 43.8242ZM49.975 22.9105L52.5716 30.6992H44.0384C44.6985 27.2791 46.9426 24.4176 49.975 22.9105ZM21.0088 15.1587H47.3912L48.6681 18.99C44.0154 21.0872 40.6076 25.4703 39.8808 30.6992H30.1192C29.3753 25.3501 25.826 20.8864 21.0088 18.8485V15.1587ZM4.10156 32.7933C4.10156 26.7109 9.05014 21.7623 15.1325 21.7623C15.5891 21.7623 16.0388 21.7938 16.4816 21.8477L12.663 32.0301L14.583 34.8008H25.9771C25.0297 39.9277 20.5292 43.8242 15.1325 43.8242C9.05014 43.8242 4.10156 38.8756 4.10156 32.7933ZM17.5427 30.6992L20.3925 23.0996C23.2384 24.6499 25.3282 27.4185 25.9616 30.6992H17.5427Z" fill="#00CD4A"/>
</svg>
